<svg version="1.1" id="Layer_1" xmlns="http://www.w3.org/2000/svg" xmlns:xlink="http://www.w3.org/1999/xlink" x="0px" y="0px"
	 viewBox="0 0 412 25" style="enable-background:new 0 0 412 25;" xml:space="preserve">
<style type="text/css">
	.st0{fill-rule:evenodd;clip-rule:evenodd;fill:#FFFFFF;}
	.st1{fill:#FFFFFF;}
</style>
<g>
	<path class="st0" d="M28.7,17.3c0.3,0,0.6,0.1,0.8,0.3c0.2,0.2,0.3,0.4,0.3,0.7V20h-9.8v-1c0-0.2,0-0.4,0.1-0.6
		c0.1-0.2,0.2-0.4,0.4-0.6l4-4.1c0.3-0.3,0.6-0.6,0.9-1c0.2-0.3,0.5-0.6,0.6-0.9c0.2-0.3,0.3-0.6,0.4-0.9c0.1-0.3,0.1-0.6,0.1-1
		c0-0.6-0.1-1-0.4-1.3c-0.3-0.3-0.7-0.4-1.2-0.4c-0.4,0-0.8,0.1-1.1,0.4c-0.2,0.1-0.4,0.3-0.5,0.5l0,0c-0.2,0.4-0.7,0.7-1.1,0.7
		c-0.6,0-1.5,0-2,0.1c0.1-0.7,0.3-1.3,0.6-1.8c0.3-0.5,0.6-0.9,1.1-1.3c0.4-0.4,0.9-0.6,1.5-0.8c0.6-0.2,1.2-0.3,1.8-0.3
		c0.7,0,1.3,0.1,1.9,0.3c0.6,0.2,1,0.5,1.4,0.8c0.4,0.4,0.7,0.8,0.9,1.3c0.2,0.5,0.3,1,0.3,1.6c0,0.5-0.1,1-0.2,1.4
		c-0.1,0.4-0.3,0.9-0.6,1.2c-0.3,0.4-0.5,0.8-0.9,1.1c-0.3,0.4-0.7,0.7-1.1,1.1c0,0-2.7,2.7-2.6,2.7c0,0,0.2,0,0.5-0.1
		c0.1,0,0.2,0,0.4-0.1c0,0,0,0,0,0c0,0,0,0,0.1,0c0.2,0,0.4-0.1,0.6-0.1c0.1,0,0.2,0,0.3,0c0,0,0,0,0,0c0,0,0,0,0,0l2,0c0,0,0,0,0,0
		H28.7z M13.5,11.1c0.5-0.3,0.6-0.4,0.6-0.5l0,0c-0.2,0-0.4,0-0.7,0.1c-0.9,0.2-1.7,0.4-2.5,0.8l-1.9-5C8.9,6.3,8.8,6.2,8.7,6.1
		C8.5,6,8.4,6,8.2,6H5.4L0,20l0,0l0,0h2.8c0.3,0,0.6-0.1,0.8-0.4c1.6-2.3,3.4-4.1,5.2-5.5l1.8,5.1c0.1,0.2,0.2,0.4,0.4,0.5
		c0.2,0.1,0.4,0.2,0.7,0.2h2.5l-2.9-7.6C12.1,11.8,12.9,11.4,13.5,11.1z M5.3,14.4l1.3-3.6c0.1-0.2,0.2-0.5,0.3-0.9
		c0-0.1,0.1-0.4,0.2-0.7l1.2,3.4C7.2,13.1,6.2,13.7,5.3,14.4z M15.3,10c0,0,0,0.1,0,0.1c0,0,0,0.1,0.1,0.1c0,0,0.1,0.1,0.1,0.1
		c0,0,0.1,0,0.1,0c0.3,0,0.7-0.1,1-0.1l0,0c-0.4,0-0.7,0.2-1,0.5c-0.3,0.3-0.4,0.7-0.4,1V20h3.3V6h-3.3V10z"/>
	<path class="st1" d="M49.8,18.9h-1.2c-0.1,0-0.2,0-0.3-0.1c-0.1-0.1-0.2-0.2-0.2-0.3L47,15.7h-5.2l-1.1,2.8c0,0.1-0.1,0.2-0.2,0.3
		c-0.1,0.1-0.2,0.1-0.3,0.1H39l4.6-11.5h1.6L49.8,18.9z M46.6,14.6l-1.8-4.7c-0.1-0.1-0.1-0.3-0.2-0.5c-0.1-0.2-0.1-0.4-0.2-0.6
		c-0.1,0.4-0.2,0.7-0.3,1.1l-1.8,4.7H46.6z"/>
	<path class="st1" d="M52.3,7v11.9h-1.4V7H52.3z"/>
	<path class="st1" d="M55.7,7v11.9h-1.4V7H55.7z"/>
	<path class="st1" d="M64.3,17.7c-0.2,0.2-0.4,0.4-0.6,0.6c-0.2,0.2-0.5,0.3-0.8,0.4c-0.3,0.1-0.6,0.2-0.9,0.2
		C61.7,19,61.4,19,61.1,19c-0.5,0-1.1-0.1-1.6-0.3c-0.5-0.2-0.9-0.5-1.2-0.8c-0.4-0.4-0.6-0.9-0.8-1.4c-0.2-0.6-0.3-1.2-0.3-1.9
		c0-0.5,0.1-1.1,0.3-1.6c0.2-0.5,0.4-0.9,0.8-1.3c0.3-0.4,0.7-0.7,1.2-0.9c0.5-0.2,1-0.3,1.6-0.3c0.5,0,0.9,0.1,1.4,0.2
		c0.4,0.2,0.8,0.4,1.1,0.7c0.3,0.3,0.6,0.7,0.7,1.1c0.2,0.5,0.3,1,0.3,1.6c0,0.2,0,0.3-0.1,0.5c0,0-0.1,0.1-0.1,0.1c0,0-0.1,0-0.2,0
		h-5.5c0,0.5,0.1,0.9,0.2,1.3c0.1,0.4,0.3,0.7,0.5,1c0.2,0.3,0.5,0.4,0.8,0.6c0.3,0.1,0.7,0.2,1,0.2c0.3,0,0.6,0,0.9-0.1
		c0.2-0.1,0.5-0.2,0.7-0.3c0.2-0.1,0.3-0.2,0.5-0.3c0.1-0.1,0.2-0.1,0.3-0.1c0.1,0,0.1,0,0.2,0c0,0,0.1,0.1,0.1,0.1L64.3,17.7z
		 M63.2,13.9c0-0.3,0-0.6-0.1-0.9c-0.1-0.3-0.2-0.5-0.4-0.7c-0.2-0.2-0.4-0.4-0.7-0.5c-0.4-0.2-0.9-0.2-1.3-0.1
		c-0.4,0.1-0.9,0.3-1.2,0.6c-0.4,0.5-0.7,1-0.7,1.7H63.2z"/>
	<path class="st1" d="M67.3,11.9c0.2-0.2,0.4-0.4,0.6-0.5c0.2-0.2,0.4-0.3,0.6-0.4c0.2-0.1,0.5-0.2,0.7-0.3c0.3-0.1,0.5-0.1,0.8-0.1
		c0.4,0,0.8,0.1,1.2,0.2c0.3,0.1,0.6,0.4,0.9,0.6c0.2,0.3,0.4,0.6,0.5,1c0.1,0.4,0.2,0.8,0.2,1.3v5.2h-1.4v-5.2c0-0.5-0.1-1-0.4-1.4
		c-0.2-0.2-0.4-0.3-0.6-0.4c-0.2-0.1-0.5-0.1-0.7-0.1c-0.4,0-0.8,0.1-1.2,0.3c-0.4,0.2-0.7,0.5-1,0.8v6h-1.4v-8.2h0.9
		c0.1,0,0.2,0,0.2,0.1c0.1,0.1,0.1,0.1,0.1,0.2L67.3,11.9z"/>
	<path class="st1" d="M80.9,18.9h-1.6V7.3h1.6V18.9z"/>
	<path class="st1" d="M84.5,11.9c0.2-0.2,0.4-0.4,0.6-0.5c0.2-0.2,0.4-0.3,0.6-0.4c0.2-0.1,0.5-0.2,0.7-0.3c0.3-0.1,0.5-0.1,0.8-0.1
		c0.4,0,0.8,0.1,1.2,0.2c0.3,0.1,0.6,0.4,0.9,0.6c0.2,0.3,0.4,0.6,0.5,1c0.1,0.4,0.2,0.8,0.2,1.3v5.2h-1.4v-5.2c0-0.5-0.1-1-0.4-1.4
		c-0.2-0.2-0.4-0.3-0.6-0.4c-0.2-0.1-0.5-0.1-0.7-0.1c-0.4,0-0.8,0.1-1.2,0.3c-0.4,0.2-0.7,0.5-1,0.8v6h-1.4v-8.2H84
		c0.1,0,0.2,0,0.2,0.1c0.1,0.1,0.1,0.1,0.1,0.2L84.5,11.9z"/>
	<path class="st1" d="M96.5,12.1c0,0.1-0.1,0.1-0.1,0.1c-0.1,0-0.1,0-0.2,0c-0.1,0-0.2,0-0.3-0.1c-0.1-0.1-0.2-0.1-0.4-0.2
		c-0.2-0.1-0.3-0.1-0.5-0.2c-0.2-0.1-0.5-0.1-0.7-0.1c-0.2,0-0.4,0-0.7,0.1c-0.2,0.1-0.3,0.1-0.5,0.3c-0.1,0.1-0.2,0.2-0.3,0.4
		c-0.1,0.1-0.1,0.3-0.1,0.5c0,0.2,0.1,0.4,0.2,0.5c0.1,0.2,0.3,0.3,0.5,0.4c0.2,0.1,0.4,0.2,0.7,0.3c0.3,0.1,0.5,0.2,0.8,0.2
		c0.3,0.1,0.5,0.2,0.8,0.3c0.2,0.1,0.5,0.2,0.7,0.4c0.2,0.2,0.4,0.4,0.5,0.6c0.1,0.3,0.2,0.6,0.2,0.8c0,0.4-0.1,0.7-0.2,1
		c-0.1,0.3-0.3,0.6-0.6,0.8c-0.3,0.2-0.6,0.4-1,0.6c-0.4,0.1-0.9,0.2-1.3,0.2c-0.5,0-1.1-0.1-1.5-0.3c-0.4-0.2-0.8-0.4-1.2-0.7
		l0.3-0.5c0-0.1,0.1-0.1,0.2-0.2c0.1,0,0.1-0.1,0.2-0.1c0.1,0,0.2,0,0.3,0.1c0.1,0.1,0.2,0.2,0.4,0.2c0.2,0.1,0.4,0.2,0.6,0.2
		c0.3,0.1,0.5,0.1,0.8,0.1c0.2,0,0.5,0,0.7-0.1c0.2-0.1,0.4-0.2,0.5-0.3c0.1-0.1,0.2-0.3,0.3-0.4c0.1-0.2,0.1-0.3,0.1-0.5
		c0-0.2-0.1-0.4-0.2-0.6c-0.1-0.2-0.3-0.3-0.5-0.4c-0.2-0.1-0.4-0.2-0.7-0.3c-0.3-0.1-0.5-0.2-0.8-0.2c-0.3-0.1-0.5-0.2-0.8-0.3
		c-0.2-0.1-0.5-0.2-0.7-0.4c-0.2-0.2-0.4-0.4-0.5-0.6c-0.1-0.3-0.2-0.6-0.2-0.9c0-0.3,0.1-0.6,0.2-0.9c0.1-0.3,0.3-0.5,0.6-0.8
		c0.3-0.2,0.6-0.4,0.9-0.5c0.4-0.1,0.8-0.2,1.2-0.2c0.5,0,1,0.1,1.4,0.3c0.4,0.2,0.8,0.4,1.1,0.7L96.5,12.1z"/>
	<path class="st1" d="M106.2,18.9h-1.4v-7h-4.2v4.9c0,0.1,0,0.3,0,0.4c0,0.1,0.1,0.3,0.2,0.4c0.1,0.1,0.2,0.1,0.3,0.2
		c0.1,0,0.2,0.1,0.3,0.1c0.1,0,0.3,0,0.4-0.1c0.1,0,0.2-0.1,0.3-0.1c0.1,0,0.1-0.1,0.2-0.1c0,0,0.1-0.1,0.1-0.1c0,0,0.1,0,0.1,0
		c0,0,0.1,0.1,0.1,0.1l0.4,0.7c-0.3,0.2-0.6,0.4-0.9,0.5c-0.3,0.1-0.7,0.2-1.1,0.2c-0.3,0-0.5,0-0.8-0.1c-0.3-0.1-0.5-0.2-0.7-0.4
		c-0.3-0.4-0.5-0.9-0.5-1.6v-5h-1c-0.1,0-0.2,0-0.2-0.1c0,0-0.1-0.1-0.1-0.1c0,0,0-0.1,0-0.1V11l1.3-0.2l0.3-2.5
		c0-0.1,0.1-0.1,0.1-0.2c0.1-0.1,0.1-0.1,0.2-0.1h0.7v2.8h5.6V18.9z M106.6,8.1c0,0.1,0,0.3-0.1,0.4c-0.1,0.1-0.1,0.2-0.2,0.3
		c-0.1,0.1-0.2,0.2-0.3,0.2c-0.1,0.1-0.3,0.1-0.4,0.1c-0.1,0-0.3,0-0.4-0.1c-0.2-0.1-0.4-0.3-0.5-0.5c-0.1-0.1-0.1-0.3-0.1-0.4
		c0-0.1,0-0.3,0.1-0.4c0.1-0.1,0.1-0.2,0.2-0.3c0.1-0.1,0.2-0.2,0.3-0.2c0.1-0.1,0.3-0.1,0.4-0.1c0.1,0,0.3,0,0.4,0.1
		c0.1,0.1,0.2,0.1,0.3,0.2c0.1,0.1,0.2,0.2,0.2,0.3C106.5,7.8,106.6,8,106.6,8.1z"/>
	<path class="st1" d="M110.7,19c-0.3,0-0.5,0-0.8-0.1c-0.3-0.1-0.5-0.2-0.7-0.4c-0.3-0.4-0.5-0.9-0.5-1.6v-5h-1
		c-0.1,0-0.2,0-0.2-0.1c0,0-0.1-0.1-0.1-0.1c0,0,0-0.1,0-0.1V11l1.3-0.2l0.3-2.5c0-0.1,0.1-0.1,0.1-0.2c0.1-0.1,0.1-0.1,0.2-0.1h0.7
		v2.8h2.4v1h-2.4v4.9c0,0.1,0,0.3,0,0.4c0,0.1,0.1,0.3,0.2,0.4c0.1,0.1,0.2,0.1,0.3,0.2c0.1,0,0.2,0.1,0.3,0.1c0.1,0,0.3,0,0.4-0.1
		c0.1,0,0.2-0.1,0.3-0.1c0.1,0,0.1-0.1,0.2-0.1c0,0,0.1-0.1,0.1-0.1c0,0,0.1,0,0.1,0c0,0,0.1,0.1,0.1,0.1l0.4,0.7
		c-0.3,0.2-0.6,0.4-0.9,0.5C111.5,18.9,111.1,19,110.7,19z"/>
	<path class="st1" d="M120.4,10.7v8.2h-0.9c-0.1,0-0.2,0-0.2-0.1c-0.1-0.1-0.1-0.1-0.1-0.2l-0.1-0.9c-0.3,0.4-0.7,0.7-1.2,0.9
		c-0.5,0.2-1,0.4-1.5,0.4c-0.4,0-0.8-0.1-1.2-0.2c-0.3-0.1-0.6-0.4-0.9-0.6c-0.2-0.3-0.4-0.6-0.5-1c-0.1-0.4-0.2-0.8-0.2-1.3v-5.2
		h1.4v5.2c0,0.5,0.1,1,0.4,1.4c0.2,0.2,0.4,0.3,0.6,0.4c0.2,0.1,0.5,0.1,0.7,0.1c0.4,0,0.8-0.1,1.2-0.3c0.4-0.2,0.7-0.5,1-0.8v-6
		H120.4z"/>
	<path class="st1" d="M124.8,19c-0.3,0-0.5,0-0.8-0.1c-0.3-0.1-0.5-0.2-0.7-0.4c-0.3-0.4-0.5-0.9-0.5-1.6v-5h-1
		c-0.1,0-0.2,0-0.2-0.1c0,0-0.1-0.1-0.1-0.1c0,0,0-0.1,0-0.1V11l1.3-0.2l0.3-2.5c0-0.1,0.1-0.1,0.1-0.2c0.1-0.1,0.1-0.1,0.2-0.1h0.7
		v2.8h2.4v1h-2.4v4.9c0,0.1,0,0.3,0,0.4c0,0.1,0.1,0.3,0.2,0.4c0.1,0.1,0.2,0.1,0.3,0.2c0.1,0,0.2,0.1,0.3,0.1c0.1,0,0.3,0,0.4-0.1
		c0.1,0,0.2-0.1,0.3-0.1c0.1,0,0.1-0.1,0.2-0.1c0,0,0.1-0.1,0.1-0.1c0,0,0.1,0,0.1,0c0,0,0.1,0.1,0.1,0.1l0.4,0.7
		c-0.3,0.2-0.6,0.4-0.9,0.5C125.6,18.9,125.2,19,124.8,19z"/>
	<path class="st1" d="M134.3,17.7c-0.2,0.2-0.4,0.4-0.6,0.6c-0.2,0.2-0.5,0.3-0.8,0.4c-0.3,0.1-0.6,0.2-0.9,0.2
		c-0.3,0.1-0.6,0.1-0.9,0.1c-0.5,0-1.1-0.1-1.6-0.3c-0.5-0.2-0.9-0.5-1.2-0.8c-0.4-0.4-0.6-0.9-0.8-1.4c-0.2-0.6-0.3-1.2-0.3-1.9
		c0-0.5,0.1-1.1,0.3-1.6c0.2-0.5,0.4-0.9,0.8-1.3c0.3-0.4,0.7-0.7,1.2-0.9c0.5-0.2,1-0.3,1.6-0.3c0.5,0,0.9,0.1,1.4,0.2
		c0.4,0.2,0.8,0.4,1.1,0.7c0.3,0.3,0.6,0.7,0.7,1.1c0.2,0.5,0.3,1,0.3,1.6c0,0.2,0,0.3-0.1,0.5c0,0-0.1,0.1-0.1,0.1c0,0-0.1,0-0.2,0
		h-5.5c0,0.5,0.1,0.9,0.2,1.3c0.1,0.4,0.3,0.7,0.5,1c0.2,0.3,0.5,0.4,0.8,0.6c0.3,0.1,0.7,0.2,1,0.2c0.3,0,0.6,0,0.9-0.1
		c0.2-0.1,0.5-0.2,0.7-0.3c0.2-0.1,0.3-0.2,0.5-0.3c0.1-0.1,0.2-0.1,0.3-0.1c0.1,0,0.1,0,0.2,0c0,0,0.1,0.1,0.1,0.1L134.3,17.7z
		 M133.1,13.9c0-0.3,0-0.6-0.1-0.9c-0.1-0.3-0.2-0.5-0.4-0.7c-0.2-0.2-0.4-0.4-0.7-0.5c-0.4-0.2-0.9-0.2-1.3-0.1
		c-0.4,0.1-0.9,0.3-1.2,0.6c-0.4,0.5-0.7,1-0.7,1.7H133.1z"/>
	<path class="st1" d="M140.8,18.9v-6.9l-0.9-0.1c-0.1,0-0.2-0.1-0.3-0.1c0,0-0.1-0.1-0.1-0.1c0,0,0-0.1,0-0.1v-0.6h1.3v-0.8
		c0-0.4,0.1-0.8,0.2-1.2c0.1-0.3,0.3-0.7,0.6-0.9c0.2-0.3,0.6-0.4,0.9-0.6c0.4-0.1,0.8-0.2,1.2-0.2c0.3,0,0.7,0.1,1,0.2l0,0.7
		c0,0,0,0.1,0,0.1c0,0,0,0,0,0.1c0,0,0,0-0.1,0c0,0-0.1,0-0.1,0c-0.1,0-0.3,0-0.5,0c-0.2,0-0.5,0-0.7,0.1c-0.2,0.1-0.4,0.2-0.5,0.3
		c-0.2,0.2-0.3,0.4-0.3,0.6c-0.1,0.3-0.1,0.6-0.1,0.9v0.7h2.4v1h-2.3v7H140.8z"/>
	<path class="st1" d="M148.9,10.6c0.6,0,1.1,0.1,1.6,0.3c0.5,0.2,0.9,0.5,1.2,0.8c0.3,0.4,0.6,0.8,0.8,1.3c0.4,1.1,0.4,2.3,0,3.5
		c-0.2,0.5-0.4,0.9-0.8,1.3c-0.3,0.4-0.8,0.7-1.2,0.8c-0.5,0.2-1.1,0.3-1.6,0.3c-0.6,0-1.1-0.1-1.6-0.3c-0.5-0.2-0.9-0.5-1.2-0.8
		c-0.3-0.4-0.6-0.8-0.8-1.3c-0.4-1.1-0.4-2.3,0-3.5c0.2-0.5,0.4-0.9,0.8-1.3c0.3-0.4,0.8-0.7,1.2-0.8
		C147.8,10.7,148.4,10.6,148.9,10.6z M148.9,17.9c0.8,0,1.4-0.3,1.8-0.8c0.4-0.5,0.6-1.3,0.6-2.3c0-1-0.2-1.7-0.6-2.3
		c-0.4-0.5-1-0.8-1.8-0.8c-0.4,0-0.7,0.1-1.1,0.2c-0.3,0.1-0.6,0.3-0.8,0.6c-0.2,0.3-0.4,0.6-0.5,1c-0.1,0.4-0.2,0.9-0.1,1.3
		c0,1,0.2,1.7,0.6,2.3C147.5,17.6,148.1,17.9,148.9,17.9z"/>
	<path class="st1" d="M155.7,12.3c0.2-0.5,0.5-0.9,1-1.3c0.4-0.3,0.9-0.5,1.4-0.5c0.2,0,0.3,0,0.5,0.1c0.1,0,0.3,0.1,0.4,0.2
		l-0.1,1.1c0,0.1,0,0.1-0.1,0.1c0,0-0.1,0.1-0.2,0.1c-0.1,0-0.2,0-0.3,0c-0.2,0-0.3-0.1-0.5,0c-0.2,0-0.5,0-0.7,0.1
		c-0.2,0.1-0.4,0.2-0.5,0.3c-0.2,0.2-0.3,0.3-0.4,0.5c-0.1,0.2-0.2,0.5-0.3,0.7v5.2h-1.4v-8.2h0.8c0.1,0,0.2,0,0.3,0.1
		c0.1,0.1,0.1,0.2,0.1,0.3L155.7,12.3z"/>
	<path class="st1" d="M174,18.9h-1.2c-0.1,0-0.2,0-0.3-0.1c-0.1-0.1-0.2-0.2-0.2-0.3l-1.1-2.8H166l-1.1,2.8c0,0.1-0.1,0.2-0.2,0.3
		c-0.1,0.1-0.2,0.1-0.3,0.1h-1.2l4.6-11.5h1.6L174,18.9z M170.8,14.6l-1.8-4.7c-0.1-0.1-0.1-0.3-0.2-0.5c-0.1-0.2-0.1-0.4-0.2-0.6
		c-0.1,0.4-0.2,0.7-0.3,1.1l-1.8,4.7H170.8z"/>
	<path class="st1" d="M176.8,18.9h-1.6V7.3h1.6V18.9z"/>
</g>
</svg>
