<svg xmlns="http://www.w3.org/2000/svg" xmlns:xlink="http://www.w3.org/1999/xlink" viewBox="0 0 300 300"><defs><style>.a{fill:url(#a);}.b{fill:#fff1c5;}.c{fill:none;stroke:#f1615f;stroke-miterlimit:10;stroke-width:14px;}.d{fill:#f1615f;}</style><linearGradient id="a" y1="150" x2="300" y2="150" gradientUnits="userSpaceOnUse"><stop offset="0" stop-color="#fff"/><stop offset="0" stop-color="#2959a9"/><stop offset="0.99" stop-color="#213c74"/></linearGradient></defs><title>scifact</title><rect class="a" width="300" height="300" rx="25"/><path class="b" d="M258.7,248.09l-43.86-43.86a63,63,0,0,0-8-79.35,60.32,60.32,0,0,0-11.16-8.77V37.55a6.72,6.72,0,0,0-6.78-6.78H45.37a6.72,6.72,0,0,0-6.78,6.78V207.42a7.07,7.07,0,0,0,6.78,7.18h73.37a63.32,63.32,0,0,0,78.55,7.18l43.86,43.86a12.41,12.41,0,1,0,17.55-17.55ZM52.54,200.64V44.73h129.6v65a62.49,62.49,0,0,0-63.8,15.15c-1.2,1.59-2.79,2.79-4,4.38H71.28v10.37h36.29a74.93,74.93,0,0,0-4.78,12H71.68V162h29.11a104.25,104.25,0,0,0-.4,11.17H71.68v10.36H102a52.94,52.94,0,0,0,6.78,17.15ZM198.09,205a50.63,50.63,0,0,1-57.82,9.57h0c-1.2-.4-2-1.2-3.19-1.6-.4-.4-.8-.4-1.2-.79-.8-.4-1.19-.8-2-1.2s-1.6-1.2-2.39-1.6c-.4,0-.4-.39-.8-.79h53.43V182.7H114a16.94,16.94,0,0,1-.8-4.39c0-.8-.4-1.59-.4-2.39s-.39-1.2-.39-2a60.7,60.7,0,0,1,.39-12,41.87,41.87,0,0,1,1.6-6.78h49.84V129.26h-31.9a50.06,50.06,0,0,1,49.85-6.38h0q3.59,1.8,7.18,3.59h0c1.19.8,2,1.6,3.19,2.4h.39a19,19,0,0,1,3.19,2.79c.8.8,1.6,1.19,2,2A50.06,50.06,0,0,1,198.09,205Z" transform="translate(0 0)"/><rect class="b" x="71.28" y="62.67" width="48.65" height="10.37"/><rect class="b" x="71.28" y="85" width="86.53" height="10.37"/><rect class="b" x="71.28" y="106.54" width="31.5" height="10.37"/><circle class="c" cx="162.62" cy="169.34" r="56.63"/><path class="d" d="M197.81,223.57,247,273.33c11.9,12,30.46-6.53,18.57-18.56L216.37,205c-11.9-12-30.46,6.53-18.56,18.56Z" transform="translate(0 0)"/></svg>